<svg width="90" height="90" viewBox="0 0 90 90" fill="none" xmlns="http://www.w3.org/2000/svg">
<path d="M28.562 35.8165C28.879 35.7125 29.2 35.5875 29.517 35.4515C30.291 35.1485 31.055 34.8365 31.816 34.5255C32.303 34.3255 32.788 34.1275 33.268 33.9345C33.33 33.9105 33.394 33.8825 33.456 33.8585C33.711 33.7525 33.965 33.6505 34.218 33.5545C34.104 33.4155 33.99 33.2455 33.879 33.0705C33.85 33.0255 33.818 32.9925 33.79 32.9435C33.616 32.5955 33.486 32.2585 33.391 31.9105C33.11 30.8705 32.935 29.3655 33.674 28.1505C33.929 27.6405 34.312 27.2565 34.649 26.9205C35.14 26.4305 35.634 26.0065 36.16 25.6265L36.792 25.1685C36.786 21.5215 34.499 19.4325 33.101 18.9245C34.76 17.8655 36.49 17.0595 38.242 17.0205C39.488 17.0315 40.713 17.4955 41.838 18.2155C42.289 17.7295 42.775 17.2925 43.276 16.9055C43.106 16.7915 42.943 16.6705 42.767 16.5615C41.415 15.7415 39.845 15.1815 38.22 15.2295C38.068 15.2405 37.927 15.2735 37.778 15.2915C38.535 3.4225 28.098 7.4305 19.624 2.4975C21.147 7.4145 23.667 15.5165 36.738 15.4735C34.146 16.0975 32.025 17.7525 30.05 19.3115C28.873 20.2685 27.741 21.2685 26.614 22.2585C26.569 18.8245 23.309 11.9835 8.096 15.1075C8.745 16.6745 13.974 27.5285 23.814 24.6485C23.619 24.8085 23.427 24.9755 23.23 25.1315C22.09 26.0695 20.891 26.8795 19.657 27.5965C19.323 27.7705 18.983 27.9295 18.64 28.0755C17.138 27.2965 11.526 25.6575 0 35.4685C0 35.4685 7.27 39.1895 18.061 29.2965C18.745 29.0965 19.413 28.8315 20.057 28.5215C21.377 27.8155 22.652 27.0125 23.843 26.0975C25.916 24.5565 27.867 22.8585 29.864 21.2835C26.724 25.1685 26.869 31.0455 28.562 35.8165ZM57.41 12.7745L59.969 12.4115L61.016 12.2625L60.757 13.2895C60.659 13.6785 60.556 14.0675 60.454 14.4575C67.394 12.1195 69.187 6.3355 70.376 2.4985C62.345 7.1725 52.551 3.8195 52.192 13.5545C53.11 13.3965 54.031 13.2615 54.943 13.1265L57.41 12.7745ZM81.902 15.1075C66.689 11.9835 63.429 18.8245 63.383 22.2585C62.257 21.2685 61.124 20.2685 59.948 19.3115C59.74 19.1475 59.528 18.9815 59.317 18.8175C59.186 19.3165 59.05 19.8195 58.91 20.3285C57.981 23.6975 56.774 27.2225 54.401 29.9795C54.389 29.9905 54.379 30.0005 54.368 30.0135C54.53 30.3695 54.718 30.7385 54.921 31.1125C55.952 29.9445 57.296 28.9185 58.962 28.0725C60.087 27.5015 61.265 27.0605 62.429 26.6415C62.109 24.6675 61.381 22.8215 60.138 21.2815C61.894 22.6685 63.62 24.1395 65.419 25.5265C65.682 25.4125 66.151 25.2015 66.605 24.9975C66.718 24.9465 66.828 24.8965 66.937 24.8475C67.185 24.7355 67.41 24.6325 67.56 24.5645L68.35 24.2035L68.546 25.0505C68.549 25.0635 68.556 25.0895 68.56 25.1085C76.87 25.7865 81.308 16.5445 81.902 15.1075ZM71.357 28.0755C71.015 27.9295 70.674 27.7715 70.34 27.5965C69.839 27.3055 69.35 26.9875 68.861 26.6635C68.885 26.8415 68.903 27.0025 68.903 27.1195C68.904 27.3775 68.881 27.6375 68.874 27.8955C69.229 28.1045 69.579 28.3255 69.942 28.5195C70.587 28.8295 71.254 29.0945 71.938 29.2945C82.73 39.1885 90 35.4685 90 35.4685C78.475 25.6575 72.861 27.2965 71.357 28.0755ZM47.095 33.6895C46.936 33.8815 46.773 34.0725 46.6 34.2545C46.621 34.4595 46.661 34.6645 46.728 34.8685C47.164 36.1605 48.465 37.1585 49.914 37.7105C50.306 37.8575 50.716 37.9615 51.132 38.0485L51.383 38.0235C51.827 37.9755 52.287 37.9285 52.74 37.8795C51.27 36.3385 49.57 34.9625 48.027 33.5055C47.857 33.5185 47.686 33.5395 47.518 33.5395C47.421 33.5395 47.325 33.5255 47.228 33.5205C47.18 33.5775 47.141 33.6345 47.095 33.6895ZM42.39 78.3185C42.332 78.1155 42.273 77.9105 42.245 77.7075C41.169 79.9755 40.472 82.4755 40.239 84.9755C40.21 85.1785 40.21 85.3815 40.268 85.5855C40.355 85.7875 40.529 85.9625 40.732 86.1085C41.691 86.8635 42.883 87.3575 44.105 87.5025C44.279 84.9455 43.901 82.3585 43 79.9465C42.797 79.3945 42.564 78.8695 42.39 78.3185ZM48.843 76.4285L43.931 71.4005C43.873 73.6675 44.512 75.9065 45.674 77.7945C45.82 78.0275 45.994 78.2605 46.227 78.4065C46.431 78.4925 46.663 78.5205 46.866 78.5205C47.419 78.5495 48.001 78.5795 48.554 78.6085C48.671 78.6195 48.791 78.6255 48.913 78.6255C49.124 78.6255 49.339 78.6055 49.542 78.5505C49.862 78.4635 50.152 78.2605 50.384 77.9695L49.075 76.6325L48.843 76.4285ZM33.583 76.9815C33.35 77.1835 33.147 77.3875 32.915 77.5895C33.555 77.7935 34.223 77.9685 34.891 78.1145C35.504 78.2665 36.158 78.3865 36.79 78.3865C37.477 78.3865 38.139 78.2445 38.699 77.8515C39.339 77.3865 39.745 76.6015 40.007 75.8465C40.414 74.6555 40.675 73.4345 40.792 72.1845C38.204 73.4945 35.763 75.0625 33.583 76.9815ZM49.819 58.9505C49.451 59.0415 49.057 59.0845 48.65 59.0845C48.047 59.0845 47.402 58.9775 46.742 58.7855C46.906 59.7095 47.323 60.5785 47.756 61.4445C48.335 62.6015 48.945 63.7915 49.91 64.7245C50.666 65.4535 51.717 65.9715 52.755 65.9715C52.998 65.9715 53.242 65.9425 53.481 65.8805C54.573 65.6245 55.411 64.7865 56.182 63.9845C56.536 63.5985 56.89 63.2445 57.276 62.8595C55.139 61.4155 53.036 59.9685 50.928 58.4975C50.6 58.6805 50.244 58.8385 49.819 58.9505ZM48.65 58.3745C48.989 58.3745 49.325 58.3405 49.653 58.2605C50.135 58.1315 50.586 57.9395 50.971 57.6495C49.009 55.9775 47.111 54.2095 45.279 52.3115C44.604 53.6295 44.508 55.2375 45.054 56.5875C45.183 56.8775 45.312 57.1995 45.537 57.4245C45.891 57.7455 46.34 57.9395 46.792 58.0685C47.395 58.2545 48.027 58.3745 48.65 58.3745ZM33.21 69.3485C34.342 68.8015 35.5 68.3425 36.687 68.0045C37.458 67.1705 37.99 66.1675 38.484 65.1805C38.882 64.3835 39.266 63.5845 39.427 62.7375C38.805 62.9155 38.205 63.0165 37.646 63.0165C37.262 63.0165 36.89 62.9735 36.523 62.8835C36.124 62.7785 35.786 62.6255 35.471 62.4475C33.512 63.8145 31.553 65.1615 29.566 66.5055C29.927 66.8665 30.259 67.1985 30.59 67.5595C31.313 68.3135 32.096 69.0975 33.12 69.3375C33.15 69.3455 33.181 69.3425 33.21 69.3485ZM35.471 61.6235C35.833 61.8955 36.255 62.0765 36.706 62.1975C37.014 62.2705 37.329 62.3045 37.645 62.3045C38.229 62.3045 38.82 62.1925 39.387 62.0165C39.809 61.8955 40.231 61.7145 40.562 61.4135C40.773 61.2025 40.894 60.8995 41.015 60.6295C41.527 59.3645 41.436 57.8585 40.804 56.6225C39.086 58.4005 37.309 60.0585 35.471 61.6235ZM36.141 72.5925C36.954 72.5925 37.566 71.9245 38.059 71.3145C38.96 70.2105 39.832 69.0755 40.762 67.9705C37.971 68.2035 35.268 69.0165 32.798 70.3245C33.35 70.7905 33.902 71.2845 34.484 71.7495C34.978 72.1565 35.53 72.5925 36.141 72.5925ZM33.198 60.1765C33.462 60.1765 33.723 60.1585 33.979 60.1195C35.2 59.9075 36.275 59.1135 37.118 58.1695C38.473 56.6485 39.343 54.7715 39.872 52.7625C39.405 52.9285 38.898 53.0225 38.363 53.0225C37.746 53.0225 37.093 52.9095 36.471 52.6905C36.331 52.6395 36.215 52.5685 36.08 52.5105C33.827 53.8645 31.504 55.0685 29.065 56.0065C28.193 56.3405 27.293 56.6465 26.42 56.9195C26.13 57.0125 25.868 57.1025 25.577 57.2255C26.245 57.9255 27.03 58.4755 27.873 58.8715C29.181 59.5415 30.634 59.9075 32.087 60.0905C32.461 60.1435 32.833 60.1765 33.198 60.1765ZM42.146 47.3985C39.792 48.4745 37.438 49.5495 35.054 50.5955C34.85 50.6835 34.676 50.7705 34.472 50.8285C35.17 51.2935 35.897 51.7285 36.71 52.0195C37.235 52.2045 37.802 52.3095 38.363 52.3095C39.042 52.3095 39.712 52.1525 40.286 51.7865C41.157 51.2055 41.71 50.2165 41.942 49.2005C42.089 48.5905 42.146 48.0095 42.146 47.3985ZM54.359 50.1885C52.556 49.1135 51.045 47.5445 49.853 45.8005C49.814 45.7415 49.775 45.6825 49.736 45.6235C49.566 45.6075 49.396 45.5965 49.228 45.5865C48.871 45.5655 48.5 45.5425 48.136 45.4875C47.546 45.4125 46.853 45.2545 46.205 44.9505C46.11 46.5825 45.94 48.2405 46.278 49.8095C46.54 51.1185 47.149 52.3685 48.021 53.3865C48.544 53.9665 49.183 54.5195 49.911 54.8095C50.58 55.0995 51.335 55.1585 52.061 55.1875C52.274 55.1975 52.484 55.2045 52.692 55.2045C53.106 55.2045 53.514 55.1785 53.922 55.1005C55.781 54.7815 57.293 53.6195 58.659 52.3105C58.455 52.1945 58.222 52.0795 58.019 51.9625C56.801 51.3525 55.551 50.8575 54.359 50.1885ZM49.971 44.9275C49.621 43.7065 48.983 42.5735 48.14 41.6145C47.326 40.6955 46.356 39.9575 45.299 39.3075C45.338 39.0475 45.378 38.7875 45.418 38.5275C45.606 37.3015 45.799 36.0765 45.998 34.8535C46.005 34.8175 46.011 34.7825 46.016 34.7475C45.678 34.9975 45.269 35.2055 44.803 35.3845C44.685 36.1855 44.574 36.9865 44.461 37.7885C44.359 38.5135 44.259 39.2395 44.161 39.9665C44.115 40.3095 44.064 40.6525 44.019 40.9965C43.485 45.0165 43.011 49.0445 42.616 53.0835C42.242 56.8585 41.945 60.6455 41.785 64.4395C41.749 65.3525 41.718 66.2655 41.695 67.1805C41.688 67.4475 41.689 67.7145 41.683 67.9815C41.634 70.5985 41.667 73.2215 41.927 75.8385C41.943 75.9775 42.068 76.0825 42.208 76.0685C42.223 76.0665 42.231 76.0525 42.246 76.0475C42.364 76.0165 42.452 75.9135 42.44 75.7895C42.437 75.7435 42.436 75.6985 42.432 75.6545C42.202 72.8515 42.221 70.0295 42.331 67.2115C42.332 67.1835 42.334 67.1545 42.335 67.1275C42.371 66.2405 42.413 65.3565 42.46 64.4735C42.672 60.6995 43.022 56.9295 43.449 53.1695C43.805 49.9955 44.218 46.8255 44.662 43.6605C44.725 43.2075 44.783 42.7535 44.848 42.3005C44.927 42.6325 45.036 42.9535 45.232 43.2425C45.841 44.2005 47.062 44.6365 48.224 44.7835C48.808 44.8685 49.39 44.8685 49.971 44.9275ZM51.27 69.2545C49.913 68.4455 48.775 67.2665 47.872 65.9565L47.856 65.9555C47.687 65.9375 47.519 65.9285 47.35 65.9185C47.065 65.9005 46.779 65.8815 46.51 65.8425C46.063 65.7865 45.541 65.6695 45.049 65.4495C44.976 66.6335 44.871 67.8305 45.115 68.9665C45.315 69.9635 45.78 70.9145 46.444 71.6905C46.841 72.1335 47.33 72.5535 47.882 72.7745C48.391 72.9975 48.967 73.0405 49.521 73.0625C49.683 73.0695 49.843 73.0755 50.001 73.0755C50.317 73.0755 50.627 73.0555 50.938 72.9975C52.354 72.7535 53.506 71.8675 54.546 70.8715C54.391 70.7825 54.214 70.6945 54.058 70.6065C53.129 70.1395 52.178 69.7645 51.27 69.2545ZM43.985 61.5725C43.897 62.3915 43.853 63.2765 44.318 63.9645C44.782 64.6935 45.713 65.0265 46.597 65.1375C47.04 65.2035 47.482 65.2035 47.927 65.2465C47.66 64.3175 47.172 63.4555 46.531 62.7245C45.843 61.9495 45.025 61.3285 44.117 60.7975C44.052 61.0635 44.008 61.3075 43.985 61.5725ZM28.916 48.7795C29.701 49.0115 30.485 49.0705 31.299 49.1585C32.027 49.2505 32.767 49.3315 33.505 49.3315C33.915 49.3315 34.324 49.3075 34.729 49.2445C36.066 49.0705 37.315 48.4885 38.333 47.6175C39.292 46.7735 40.019 45.6985 40.746 44.5955C41.123 43.9855 41.53 43.3745 41.85 42.7045C41.9 42.5975 41.943 42.4805 41.99 42.3695C41.49 42.7045 40.924 42.9815 40.275 43.0865C40.068 43.1195 39.855 43.1365 39.641 43.1365C38.964 43.1365 38.256 42.9545 37.569 42.6355C36.608 42.8345 35.64 42.9985 34.671 43.0835C33.508 43.1995 32.317 43.2295 31.183 43.5195C30.718 43.6365 30.283 43.7805 29.875 44.0435C29.468 44.3045 29.148 44.6535 28.799 45.0025C27.927 45.8745 27.026 46.6305 26.038 47.3275C26.939 47.9385 27.869 48.4885 28.916 48.7795ZM35.456 40.0305C35.92 40.5825 36.444 41.0765 37.025 41.5125C37.784 42.0505 38.708 42.4255 39.641 42.4255C39.815 42.4255 39.99 42.4115 40.164 42.3835C41.24 42.2095 42.199 41.4535 42.926 40.5525C43.42 39.9125 43.798 39.1865 44.147 38.4605C43.846 38.4185 43.544 38.4005 43.24 38.4005C42.044 38.4005 40.83 38.6875 39.671 39.0125C38.275 39.4205 36.88 39.8855 35.456 40.0305ZM54.463 40.9595C54.471 41.0495 54.469 41.1385 54.482 41.2295C54.657 42.5655 55.441 43.8455 56.662 44.3395C57.235 44.5795 57.864 44.6435 58.502 44.6435C58.868 44.6435 59.237 44.6215 59.599 44.6005H59.802C58.964 43.6005 57.991 42.6895 57.073 41.7395C56.196 41.5295 55.33 41.2525 54.463 40.9595ZM51.652 42.0975C52.009 42.0975 52.358 42.0015 52.651 41.7815C52.882 41.6355 53.056 41.4045 53.232 41.2005C53.383 41.0185 53.533 40.8245 53.681 40.6315C53.559 40.5515 53.437 40.4535 53.337 40.3135C53.149 40.0535 53.103 39.7725 53.07 39.5865C53.031 39.3475 52.988 39.1105 52.946 38.8755C52.926 38.7775 52.91 38.6765 52.891 38.5775C52.412 38.6285 51.927 38.6785 51.457 38.7305C50.988 38.7755 50.519 38.8365 50.052 38.8365C49.909 38.8365 49.768 38.8315 49.626 38.8185C49.276 38.7895 48.958 38.7595 48.639 38.6725C48.666 38.9345 48.753 39.1955 48.841 39.4575C49.131 40.2715 49.539 41.0855 50.237 41.6085C50.644 41.9125 51.157 42.0975 51.652 42.0975ZM37.703 33.2595C37.872 33.3155 38.039 33.3875 38.204 33.4595C38.429 33.5575 38.642 33.6495 38.827 33.6615C39.082 33.6615 39.385 33.3355 39.706 32.9895C39.708 32.9885 39.71 32.9865 39.712 32.9835C39.909 32.5195 40.027 31.9965 39.947 31.4915C39.831 30.8515 39.453 30.3005 39.075 29.7765C38.842 29.4575 38.58 29.1665 38.319 28.8765C37.941 28.4405 37.505 28.0635 37.186 27.5975C36.895 27.1905 36.72 26.6965 36.575 26.2015C36.052 26.5795 35.587 26.9865 35.151 27.4235C34.832 27.7425 34.511 28.0635 34.308 28.4695C33.727 29.4285 33.785 30.6485 34.076 31.7245C34.163 32.0435 34.279 32.3345 34.425 32.6255C34.575 32.8825 34.76 33.1015 34.95 33.3075C35.461 33.1575 35.973 33.0595 36.494 33.0595C36.926 33.0615 37.337 33.1295 37.703 33.2595ZM65.522 26.2545C63.457 27.0765 61.279 27.6935 59.285 28.7065C57.563 29.5805 55.959 30.7565 54.836 32.3275C54.121 33.3285 53.615 34.4945 53.434 35.7145C53.243 37.0025 53.566 38.2085 53.774 39.4725C53.798 39.6205 53.825 39.7755 53.915 39.8985C54.032 40.0605 54.234 40.1355 54.425 40.2005C56.282 40.8355 58.18 41.4285 60.158 41.4285C60.282 41.4285 60.405 41.4265 60.528 41.4215C66.077 41.2105 67.776 33.4465 68.118 29.1085C68.171 28.4445 68.196 27.7815 68.194 27.1255C68.194 26.6665 67.856 25.2125 67.856 25.2125C67.856 25.2125 65.874 26.1145 65.522 26.2545ZM40.032 26.3845C40.446 27.9055 41.392 29.2475 42.514 30.3805C42.896 30.7665 43.311 31.1165 43.746 31.4415C43.98 31.4355 44.217 31.4295 44.443 31.4275C44.639 31.4265 44.832 31.4255 45.01 31.4215L45.445 31.4075C46.118 31.3875 46.815 31.3685 47.439 31.2575L49.187 30.9465L48.136 32.3785C48.032 32.5215 47.905 32.6645 47.793 32.8085C50.082 32.7025 52.323 31.3085 53.861 29.5165C56.61 26.3255 57.733 22.0905 58.797 18.0045C59.21 16.3945 59.653 14.7555 60.068 13.1145C58.383 13.3525 56.728 13.5915 55.044 13.8295C51.379 14.3665 47.568 14.9335 44.465 16.9315C41.333 18.9305 39.057 22.7765 40.032 26.3845ZM29.775 36.1135C29.165 36.3745 28.496 36.6365 27.827 36.7235C29.213 38.2505 31.231 39.2555 33.32 39.2555C33.378 39.2555 33.437 39.2545 33.495 39.2535C35.878 39.1655 38.262 37.6835 39.163 35.4745C39.25 35.3015 39.308 35.0975 39.482 35.0095C39.527 34.9905 39.572 34.9855 39.617 34.9855C39.717 34.9855 39.818 35.0195 39.918 35.0395C40.521 35.1745 41.134 35.2415 41.744 35.2415C42.576 35.2415 43.403 35.1165 44.19 34.8645C44.742 34.6915 45.266 34.4585 45.701 34.1085C46.021 33.8775 46.282 33.5565 46.545 33.2375C46.893 32.8295 47.242 32.3935 47.562 31.9585C46.749 32.1035 45.877 32.1035 45.033 32.1325C43.667 32.1615 42.039 32.0445 40.906 32.8295C40.198 33.3405 39.684 34.3725 38.825 34.3725C38.802 34.3725 38.778 34.3725 38.755 34.3705C38.319 34.3425 37.912 34.0795 37.476 33.9345C37.155 33.8205 36.826 33.7715 36.493 33.7715C35.562 33.7715 34.604 34.1515 33.726 34.5165C32.421 35.0385 31.112 35.5915 29.775 36.1135Z" fill="url(#paint0_linear_330_304)"/>
<defs>
<linearGradient id="paint0_linear_330_304" x1="45" y1="2.4975" x2="45" y2="87.5025" gradientUnits="userSpaceOnUse">
<stop stop-color="#9966E6"/>
<stop offset="0.65625" stop-color="#7F43DA"/>
<stop offset="1" stop-color="#7F43DA"/>
</linearGradient>
</defs>
</svg>
