<svg width="450" height="450" viewBox="0 0 450 450" fill="none" xmlns="http://www.w3.org/2000/svg">
<path d="M309.375 140.625H281.25V168.75H309.375V140.625Z" fill="#845137"/>
<path d="M365.625 140.625H337.5V168.75C353.033 168.75 365.625 156.158 365.625 140.625Z" fill="#845137"/>
<path d="M168.75 196.875H140.625V225H168.75V196.875Z" fill="#8F563B"/>
<path d="M253.125 225H225C225 240.533 237.592 253.125 253.125 253.125V225Z" fill="#845137"/>
<path d="M309.375 225H281.25V253.125H309.375V225Z" fill="#975E3F"/>
<path d="M225 309.375V281.25C209.467 281.25 196.875 293.842 196.875 309.375H225Z" fill="#975E3F"/>
<path d="M309.375 309.375H281.25V337.5C296.783 337.5 309.375 324.908 309.375 309.375Z" fill="#845137"/>
<path d="M196.875 28.125C181.342 28.125 168.75 40.717 168.75 56.25H140.625C125.092 56.25 112.5 68.842 112.5 84.375V112.5V126.562C112.5 134.329 118.796 140.625 126.562 140.625C134.329 140.625 140.625 134.329 140.625 126.562V112.5C140.625 112.5 140.625 98.4375 154.688 98.4375C168.75 98.4375 168.75 112.5 168.75 112.5V140.625V168.75V196.875V225V253.125V267.188C168.75 274.954 175.046 281.25 182.812 281.25C190.579 281.25 196.875 274.954 196.875 267.188V253.125V225V196.875V168.75V140.625V112.5C196.875 96.967 209.467 84.375 225 84.375C240.533 84.375 253.125 96.967 253.125 112.5V140.625V168.75V196.875V225V253.125V281.25V309.375V337.5V351.625V365.625V379.688C253.125 387.454 259.421 393.75 267.188 393.75C274.954 393.75 281.25 387.454 281.25 379.688V365.625V337.5V309.375V281.25V253.125V225V196.875V168.75V140.625C281.25 140.625 281.25 126.562 295.312 126.562C309.375 126.562 309.375 140.625 309.375 140.625V168.75V182.812C309.375 190.579 315.671 196.875 323.438 196.875C331.204 196.875 337.5 190.579 337.5 182.812V168.75V140.625C337.5 125.092 350.092 112.5 365.625 112.5C381.158 112.5 393.75 125.092 393.75 140.625V168.75V196.875V210.938C393.75 218.704 400.046 225 407.812 225C415.579 225 421.875 218.704 421.875 210.938V196.875V168.75V140.625V112.5V107.375C421.875 94.6725 411.578 84.375 398.875 84.375H393.75H365.625V78.25C365.625 66.0997 355.775 56.25 343.625 56.25H337.5C337.5 40.717 324.908 28.125 309.375 28.125C293.842 28.125 281.25 40.717 281.25 56.25H253.125C253.125 40.717 240.533 28.125 225 28.125H196.875Z" fill="#BB93F7"/>
<path d="M365.625 168.75C350.092 168.75 337.5 181.342 337.5 196.875C321.967 196.875 309.375 209.467 309.375 225V253.125V281.25V309.375V337.5V351.562C309.375 359.329 315.671 365.625 323.438 365.625C331.204 365.625 337.5 359.329 337.5 351.562V337.5V309.375V281.25V253.125C337.5 253.125 337.5 239.062 351.562 239.062C356.442 239.062 359.628 240.756 361.709 242.967C365.625 247.128 365.625 253.125 365.625 253.125V281.25V295.312C365.625 303.079 371.921 309.375 379.688 309.375C387.454 309.375 393.75 303.079 393.75 295.312V281.25C393.75 281.25 393.75 267.188 407.812 267.188C421.875 267.188 421.875 281.25 421.875 281.25V309.375V337.5V351.562C421.875 359.329 428.171 365.625 435.938 365.625C443.704 365.625 450 359.329 450 351.562V337.5V309.375V281.25V253.125V225C450 209.467 437.408 196.875 421.875 196.875V210.938C421.875 218.704 415.579 225 407.812 225C400.046 225 393.75 218.704 393.75 210.938V196.875C393.75 181.342 381.158 168.75 365.625 168.75Z" fill="#A879EF"/>
<path d="M337.5 140.625H365.625H393.75C393.75 125.092 381.158 112.5 365.625 112.5C350.092 112.5 337.5 125.092 337.5 140.625Z" fill="#945EE6"/>
<path d="M281.25 140.625H309.375C309.375 140.625 309.375 126.562 295.312 126.562C281.25 126.562 281.25 140.625 281.25 140.625Z" fill="#945EE6"/>
<path d="M196.875 112.5H225C240.533 112.5 253.125 125.092 253.125 140.625V112.5C253.125 96.967 240.533 84.375 225 84.375C209.467 84.375 196.875 96.967 196.875 112.5Z" fill="#A879EF"/>
<path d="M140.625 112.5H168.75C168.75 112.5 168.75 98.4375 154.688 98.4375C140.625 98.4375 140.625 112.5 140.625 112.5Z" fill="#A879EF"/>
<path d="M225 112.5C225 128.033 237.592 140.625 253.125 140.625C253.125 125.092 240.533 112.5 225 112.5Z" fill="#945EE6"/>
<path d="M196.875 140.625V168.75H225C209.467 168.75 196.875 156.158 196.875 140.625Z" fill="#945EE6"/>
<path d="M225 112.5H196.875V140.625H225H253.125C237.592 140.625 225 128.033 225 112.5Z" fill="#784C32"/>
<path d="M225 140.625H196.875C196.875 156.158 209.467 168.75 225 168.75H253.125V140.625H225Z" fill="#845137"/>
<path d="M253.125 168.75H225V196.875H196.875V225H225H253.125V196.875V168.75Z" fill="#8F563B"/>
<path d="M337.5 253.125H342.625C350.572 253.125 357.577 249.095 361.709 242.967C359.628 240.756 356.442 239.062 351.562 239.062C337.5 239.062 337.5 253.125 337.5 253.125Z" fill="#845137"/>
<path d="M28.125 281.25V253.125C12.592 253.125 0 265.717 0 281.25V309.375V337.5V351.562C0 359.329 6.296 365.625 14.0625 365.625C21.829 365.625 28.125 359.329 28.125 351.562V337.5V309.375V281.25Z" fill="#A879EF"/>
<path d="M84.375 225C68.9063 225 56.3542 212.512 56.2506 197.068C56.1834 207.398 50.5468 216.406 42.193 221.241C46.3285 223.632 51.1295 225 56.25 225V253.125V281.25V295.312C56.25 303.079 62.546 309.375 70.3125 309.375C78.079 309.375 84.375 303.079 84.375 295.312V281.25V253.125V225Z" fill="#945EE6"/>
<path d="M56.25 140.625C40.717 140.625 28.125 153.217 28.125 168.75C12.592 168.75 0 181.342 0 196.875V225V253.125V281.25C0 265.717 12.592 253.125 28.125 253.125V225.006C33.25 225.006 38.0548 223.635 42.193 221.241C50.5468 216.406 56.1834 207.398 56.2506 197.068C56.2502 197.003 56.25 196.939 56.25 196.875C56.25 189.108 59.398 182.077 64.4876 176.988C69.5772 171.898 76.6085 168.75 84.375 168.75C99.908 168.75 112.5 181.342 112.5 196.875H140.625C140.625 181.342 128.033 168.75 112.5 168.75C112.5 153.217 99.908 140.625 84.375 140.625H56.25Z" fill="#BB93F7"/>
<path d="M140.625 196.875H112.5V225V253.125V267.188C112.5 274.954 118.796 281.25 126.562 281.25C134.329 281.25 140.625 274.954 140.625 267.188V253.125V225V196.875Z" fill="#A879EF"/>
<path d="M84.375 196.875H56.25C56.25 196.939 56.2502 197.003 56.2506 197.068C56.3542 212.512 68.9063 225 84.375 225H112.5V196.875H84.375Z" fill="#845137"/>
<path fill-rule="evenodd" clip-rule="evenodd" d="M112.5 196.875H84.375C72.549 192.283 67.5168 188.457 64.4876 176.988C69.5772 171.898 76.6085 168.75 84.375 168.75C99.908 168.75 112.5 181.342 112.5 196.875Z" fill="#A879EF"/>
<path d="M56.25 196.875H84.375C72.549 192.283 67.5168 188.457 64.4876 176.988C59.398 182.077 56.25 189.108 56.25 196.875Z" fill="#8F563B"/>
<path d="M225 365.625H196.875V393.75H168.75V421.875H196.875H225H253.125V413.75C253.125 402.704 244.171 393.75 233.125 393.75H225V365.625Z" fill="#845137"/>
<path d="M225 281.25V309.375H196.875V337.5H168.75H140.625C125.092 337.5 112.5 350.092 112.5 365.625H140.625V393.75V421.875H168.75V393.75H196.875V365.625H225H239.125C246.857 365.625 253.125 359.357 253.125 351.625V337.5V309.375V281.25H225Z" fill="#8F563B"/>
<path d="M309.375 253.125H281.25V281.25V309.375H309.375V281.25V253.125Z" fill="#8F563B"/>
<path d="M140.625 365.625H112.5V393.75C96.967 393.75 84.375 406.342 84.375 421.875H112.5H140.625V393.75V365.625Z" fill="#975E3F"/>
<path d="M140.625 337.5H168.75H196.875V309.375H168.75C153.217 309.375 140.625 321.967 140.625 337.5Z" fill="#975E3F"/>
</svg>
